<svg xmlns="http://www.w3.org/2000/svg" xmlns:xlink="http://www.w3.org/1999/xlink" version="1.1" width="784.1" height="351.1" viewBox="89.9 144.9 784.1 351.1"><g><g transform="translate(93,250.3)"><g><g>
<g stroke="#000000" stroke-dasharray="none" fill="#FFFFFF">
    <polygon points="42.7,0 683,0 640.3,55 0,55"/>
</g>
<rect x="56.1" y="4.4" fill="none" width="565.2" height="46.1"/>
<circle fill="none" cx="349.3" cy="0" r="0.1"/>
<circle fill="none" cx="571.5" cy="0.1" r="0.1"/>
<circle fill="none" cx="677.4" cy="7.8" r="0.1"/>
<circle fill="none" cx="662" cy="25.1" r="0.1"/>
<circle fill="none" cx="645.6" cy="44.8" r="0.1"/>
<circle fill="none" cx="532.9" cy="55" r="0.1"/>
<circle fill="none" cx="312.8" cy="54.9" r="0.1"/>
<circle fill="none" cx="92.6" cy="54.9" r="0.1"/>
<circle fill="none" cx="8.5" cy="43.8" r="0.1"/>
<circle fill="none" cx="23.8" cy="27.5" r="0.1"/>
<circle fill="none" cx="35.5" cy="8.5" r="0.1"/>
<circle fill="none" cx="136.5" cy="0.1" r="0.1"/>
</g></g><rect stroke="none" stroke-width="0" fill="#FFFFFF" x="0" y="0" width="0" height="0" transform="translate(661.9,25)"/><path stroke="#000000" fill="none" d=""/><text font-family="OpenSansCondensedLight" font-size="14pt" fill="black" transform="translate(661.9,25)"/><rect stroke-width="0" fill="none" width="565.2" height="46.1" transform="translate(56.1,4.4)"/><text font-family="OpenSansCondensedLight" font-size="14pt" fill="black" transform="translate(56.1,4.4)" text-anchor="middle"><tspan x="282.6" y="29.4"> </tspan></text><path stroke="#000000" fill="none" transform="translate(56.1,4.4)" d="M 0 0"/></g><g transform="translate(90,306)"><g><g>
<path d="M519,0H0v19h519V0L519,0z" stroke="#000000" stroke-dasharray="none" fill="#FFFFFF"/>
<rect x="22.7" y="0.9" width="473.6" height="17.3" fill="none"/>
<circle fill="none" cx="259.5" cy="0" r="0.1"/>
<circle fill="none" cx="388.1" cy="0" r="0.1"/>
<circle fill="none" cx="519" cy="4.8" r="0.1"/>
<circle fill="none" cx="519" cy="9.5" r="0.1"/>
<circle fill="none" cx="519" cy="14.2" r="0.1"/>
<circle fill="none" cx="388.1" cy="19" r="0.1"/>
<circle fill="none" cx="259.5" cy="19" r="0.1"/>
<circle fill="none" cx="130.9" cy="19" r="0.1"/>
<circle fill="none" cx="0" cy="14.2" r="0.1"/>
<circle fill="none" cx="0" cy="9.5" r="0.1"/>
<circle fill="none" cx="0" cy="4.8" r="0.1"/>
<circle fill="none" cx="130.9" cy="0" r="0.1"/>
</g></g><rect stroke="none" stroke-width="0" fill="#FFFFFF" x="0" y="0" width="0" height="0" transform="translate(518.9,9.4)"/><path stroke="#000000" fill="none" d=""/><text font-family="OpenSansCondensedLight" font-size="14pt" fill="black" transform="translate(518.9,9.4)"/><rect stroke-width="0" fill="none" width="473.6" height="17.3" transform="translate(22.7,0.9)"/><text font-family="OpenSansCondensedLight" font-size="14pt" fill="black" transform="translate(22.7,0.9)" text-anchor="middle"><tspan x="236.8" y="14.9"> </tspan></text><path stroke="#000000" fill="none" transform="translate(22.7,0.9)" d="M 0 0"/></g><g transform="translate(633,145)"><g><g>
<path d="M75.5,0C33.7,0,0,33.2,0,74s33.7,74,75.5,74s75.5,-33.2,75.5,-74S117.4,0,75.5,0L75.5,0z" stroke="#000000" stroke-dasharray="none" fill="#FFFFFF"/>
<rect x="14.9" y="37.6" width="121.6" height="72.7" fill="none"/>
<circle fill="none" cx="75.7" cy="0" r="0.1"/>
<circle fill="none" cx="111.6" cy="9" r="0.1"/>
<circle fill="none" cx="141.4" cy="37.8" r="0.1"/>
<circle fill="none" cx="151" cy="74" r="0.1"/>
<circle fill="none" cx="141.3" cy="110.3" r="0.1"/>
<circle fill="none" cx="112.6" cy="138.4" r="0.1"/>
<circle fill="none" cx="75.5" cy="148" r="0.1"/>
<circle fill="none" cx="38.3" cy="138.4" r="0.1"/>
<circle fill="none" cx="9.7" cy="110.3" r="0.1"/>
<circle fill="none" cx="0" cy="73.3" r="0.1"/>
<circle fill="none" cx="9.6" cy="37.8" r="0.1"/>
<circle fill="none" cx="39.2" cy="9" r="0.1"/>
</g></g><rect stroke="none" stroke-width="0" fill="#FFFFFF" x="0" y="0" width="0" height="0" transform="translate(150.9,73.9)"/><path stroke="#000000" fill="none" d=""/><text font-family="OpenSansCondensedLight" font-size="14pt" fill="black" transform="translate(150.9,73.9)"/><rect stroke-width="0" fill="none" width="121.6" height="72.7" transform="translate(14.9,37.6)"/><text font-family="OpenSansCondensedLight" font-size="14pt" fill="black" transform="translate(14.9,37.6)" text-anchor="middle"><tspan x="60.8" y="42.6"> </tspan></text><path stroke="#000000" fill="none" transform="translate(14.9,37.6)" d="M 0 0"/></g><g transform="translate(620,146)"><g><g>
<path d="M43,0C19.2,0,0,9,0,20s19.2,20,43,20s43,-9,43,-20S66.9,0,43,0L43,0z" stroke="none" stroke-dasharray="none" fill="#FFFFFF"/>
<rect x="8.5" y="10.2" width="69.3" height="19.6" fill="none"/>
<circle fill="none" cx="43.1" cy="0" r="0.1"/>
<circle fill="none" cx="63.6" cy="2.4" r="0.1"/>
<circle fill="none" cx="80.5" cy="10.2" r="0.1"/>
<circle fill="none" cx="86" cy="20" r="0.1"/>
<circle fill="none" cx="80.5" cy="29.8" r="0.1"/>
<circle fill="none" cx="64.1" cy="37.4" r="0.1"/>
<circle fill="none" cx="43" cy="40" r="0.1"/>
<circle fill="none" cx="21.8" cy="37.4" r="0.1"/>
<circle fill="none" cx="5.5" cy="29.8" r="0.1"/>
<circle fill="none" cx="0" cy="19.8" r="0.1"/>
<circle fill="none" cx="5.5" cy="10.2" r="0.1"/>
<circle fill="none" cx="22.3" cy="2.4" r="0.1"/>
</g></g><rect stroke="none" stroke-width="0" fill="#FFFFFF" x="0" y="0" width="0" height="0" transform="translate(85.9,19.9)"/><path stroke="#000000" fill="none" d=""/><text font-family="OpenSansCondensedLight" font-size="14pt" fill="black" transform="translate(85.9,19.9)"/><rect stroke-width="0" fill="none" width="69.3" height="19.6" transform="translate(8.5,10.2)"/><text font-family="OpenSansCondensedLight" font-size="14pt" fill="black" transform="translate(8.5,10.2)" text-anchor="middle"><tspan x="34.6" y="16.1"> </tspan></text><path stroke="#000000" fill="none" transform="translate(8.5,10.2)" d="M 0 0"/></g><g transform="translate(555,183)"><g><g>
<path d="M75.5,0C33.7,0,0,33.2,0,74s33.7,74,75.5,74s75.5,-33.2,75.5,-74S117.4,0,75.5,0L75.5,0z" stroke="#000000" stroke-dasharray="none" fill="#FFFFFF"/>
<rect x="14.9" y="37.6" width="121.6" height="72.7" fill="none"/>
<circle fill="none" cx="75.7" cy="0" r="0.1"/>
<circle fill="none" cx="111.6" cy="9" r="0.1"/>
<circle fill="none" cx="141.4" cy="37.8" r="0.1"/>
<circle fill="none" cx="151" cy="74" r="0.1"/>
<circle fill="none" cx="141.3" cy="110.3" r="0.1"/>
<circle fill="none" cx="112.6" cy="138.4" r="0.1"/>
<circle fill="none" cx="75.5" cy="148" r="0.1"/>
<circle fill="none" cx="38.3" cy="138.4" r="0.1"/>
<circle fill="none" cx="9.7" cy="110.3" r="0.1"/>
<circle fill="none" cx="0" cy="73.3" r="0.1"/>
<circle fill="none" cx="9.6" cy="37.8" r="0.1"/>
<circle fill="none" cx="39.2" cy="9" r="0.1"/>
</g></g><rect stroke="none" stroke-width="0" fill="#FFFFFF" x="0" y="0" width="0" height="0" transform="translate(150.9,73.9)"/><path stroke="#000000" fill="none" d=""/><text font-family="OpenSansCondensedLight" font-size="14pt" fill="black" transform="translate(150.9,73.9)"/><rect stroke-width="0" fill="none" width="121.6" height="72.7" transform="translate(14.9,37.6)"/><text font-family="OpenSansCondensedLight" font-size="14pt" fill="black" transform="translate(14.9,37.6)" text-anchor="middle"><tspan x="60.8" y="42.6"> </tspan></text><path stroke="#000000" fill="none" transform="translate(14.9,37.6)" d="M 0 0"/></g><g transform="translate(572,206)"><g><g>
<path d="M54.5,0C24.3,0,0,23.8,0,53s24.3,53,54.5,53s54.5,-23.8,54.5,-53S84.7,0,54.5,0L54.5,0z" stroke="#000000" stroke-dasharray="none" fill="#FFFFFF"/>
<rect x="10.7" y="26.9" width="87.8" height="52.1" fill="none"/>
<circle fill="none" cx="54.7" cy="0" r="0.1"/>
<circle fill="none" cx="80.6" cy="6.5" r="0.1"/>
<circle fill="none" cx="102" cy="27.1" r="0.1"/>
<circle fill="none" cx="109" cy="53" r="0.1"/>
<circle fill="none" cx="102" cy="79" r="0.1"/>
<circle fill="none" cx="81.3" cy="99.1" r="0.1"/>
<circle fill="none" cx="54.5" cy="106" r="0.1"/>
<circle fill="none" cx="27.6" cy="99.1" r="0.1"/>
<circle fill="none" cx="7" cy="79" r="0.1"/>
<circle fill="none" cx="0" cy="52.5" r="0.1"/>
<circle fill="none" cx="7" cy="27.1" r="0.1"/>
<circle fill="none" cx="28.3" cy="6.5" r="0.1"/>
</g></g><rect stroke="none" stroke-width="0" fill="#FFFFFF" x="0" y="0" width="0" height="0" transform="translate(108.9,52.9)"/><path stroke="#000000" fill="none" d=""/><text font-family="OpenSansCondensedLight" font-size="14pt" fill="black" transform="translate(108.9,52.9)"/><rect stroke-width="0" fill="none" width="87.8" height="52.1" transform="translate(10.7,26.9)"/><text font-family="OpenSansCondensedLight" font-size="14pt" fill="black" transform="translate(10.7,26.9)" text-anchor="middle"><tspan x="43.9" y="32.3"> </tspan></text><path stroke="#000000" fill="none" transform="translate(10.7,26.9)" d="M 0 0"/></g><g transform="translate(692,274)"><g><g>
<path d="M32.5,0C14.5,0,0,17.3,0,38.5s14.5,38.5,32.5,38.5s32.5,-17.3,32.5,-38.5S50.5,0,32.5,0L32.5,0z" stroke="none" stroke-dasharray="none" fill="#FFFFFF"/>
<rect x="6.4" y="19.6" width="52.3" height="37.8" fill="none"/>
<circle fill="none" cx="32.6" cy="0" r="0.1"/>
<circle fill="none" cx="48.1" cy="4.7" r="0.1"/>
<circle fill="none" cx="60.9" cy="19.7" r="0.1"/>
<circle fill="none" cx="65" cy="38.5" r="0.1"/>
<circle fill="none" cx="60.8" cy="57.4" r="0.1"/>
<circle fill="none" cx="48.5" cy="72" r="0.1"/>
<circle fill="none" cx="32.5" cy="77" r="0.1"/>
<circle fill="none" cx="16.5" cy="72" r="0.1"/>
<circle fill="none" cx="4.2" cy="57.4" r="0.1"/>
<circle fill="none" cx="0" cy="38.1" r="0.1"/>
<circle fill="none" cx="4.2" cy="19.7" r="0.1"/>
<circle fill="none" cx="16.9" cy="4.7" r="0.1"/>
</g></g><rect stroke="none" stroke-width="0" fill="#FFFFFF" x="0" y="0" width="0" height="0" transform="translate(64.9,38.4)"/><path stroke="#000000" fill="none" d=""/><text font-family="OpenSansCondensedLight" font-size="14pt" fill="black" transform="translate(64.9,38.4)"/><rect stroke-width="0" fill="none" width="52.3" height="37.8" transform="translate(6.4,19.6)"/><text font-family="OpenSansCondensedLight" font-size="14pt" fill="black" transform="translate(6.4,19.6)" text-anchor="middle"><tspan x="26.2" y="25.2"> </tspan></text><path stroke="#000000" fill="none" transform="translate(6.4,19.6)" d="M 0 0"/></g><g transform="translate(589,223)"><g><g>
<path d="M37,0C16.5,0,0,16.4,0,36.5s16.5,36.5,37,36.5s37,-16.4,37,-36.5S57.5,0,37,0L37,0z" stroke="#000000" stroke-dasharray="none" fill="#FFFFFF"/>
<rect x="7.3" y="18.5" width="59.6" height="35.9" fill="none"/>
<circle fill="none" cx="37.1" cy="0" r="0.1"/>
<circle fill="none" cx="54.7" cy="4.5" r="0.1"/>
<circle fill="none" cx="69.3" cy="18.6" r="0.1"/>
<circle fill="none" cx="74" cy="36.5" r="0.1"/>
<circle fill="none" cx="69.2" cy="54.4" r="0.1"/>
<circle fill="none" cx="55.2" cy="68.3" r="0.1"/>
<circle fill="none" cx="37" cy="73" r="0.1"/>
<circle fill="none" cx="18.8" cy="68.3" r="0.1"/>
<circle fill="none" cx="4.8" cy="54.4" r="0.1"/>
<circle fill="none" cx="0" cy="36.1" r="0.1"/>
<circle fill="none" cx="4.7" cy="18.6" r="0.1"/>
<circle fill="none" cx="19.2" cy="4.5" r="0.1"/>
</g></g><rect stroke="none" stroke-width="0" fill="#FFFFFF" x="0" y="0" width="0" height="0" transform="translate(73.9,36.4)"/><path stroke="#000000" fill="none" d=""/><text font-family="OpenSansCondensedLight" font-size="14pt" fill="black" transform="translate(73.9,36.4)"/><rect stroke-width="0" fill="none" width="59.6" height="35.9" transform="translate(7.3,18.5)"/><text font-family="OpenSansCondensedLight" font-size="14pt" fill="black" transform="translate(7.3,18.5)" text-anchor="middle"><tspan x="29.8" y="24.2"> </tspan></text><path stroke="#000000" fill="none" transform="translate(7.3,18.5)" d="M 0 0"/></g><g transform="translate(714,229)"><g><g>
<path d="M32.5,0C14.5,0,0,17.3,0,38.5s14.5,38.5,32.5,38.5s32.5,-17.3,32.5,-38.5S50.5,0,32.5,0L32.5,0z" stroke="none" stroke-dasharray="none" fill="#FFFFFF"/>
<rect x="6.4" y="19.6" width="52.3" height="37.8" fill="none"/>
<circle fill="none" cx="32.6" cy="0" r="0.1"/>
<circle fill="none" cx="48.1" cy="4.7" r="0.1"/>
<circle fill="none" cx="60.9" cy="19.7" r="0.1"/>
<circle fill="none" cx="65" cy="38.5" r="0.1"/>
<circle fill="none" cx="60.8" cy="57.4" r="0.1"/>
<circle fill="none" cx="48.5" cy="72" r="0.1"/>
<circle fill="none" cx="32.5" cy="77" r="0.1"/>
<circle fill="none" cx="16.5" cy="72" r="0.1"/>
<circle fill="none" cx="4.2" cy="57.4" r="0.1"/>
<circle fill="none" cx="0" cy="38.1" r="0.1"/>
<circle fill="none" cx="4.2" cy="19.7" r="0.1"/>
<circle fill="none" cx="16.9" cy="4.7" r="0.1"/>
</g></g><rect stroke="none" stroke-width="0" fill="#FFFFFF" x="0" y="0" width="0" height="0" transform="translate(64.9,38.4)"/><path stroke="#000000" fill="none" d=""/><text font-family="OpenSansCondensedLight" font-size="14pt" fill="black" transform="translate(64.9,38.4)"/><rect stroke-width="0" fill="none" width="52.3" height="37.8" transform="translate(6.4,19.6)"/><text font-family="OpenSansCondensedLight" font-size="14pt" fill="black" transform="translate(6.4,19.6)" text-anchor="middle"><tspan x="26.2" y="25.2"> </tspan></text><path stroke="#000000" fill="none" transform="translate(6.4,19.6)" d="M 0 0"/></g><g transform="translate(603,236)"><g><g>
<path d="M22.5,0C10,0,0,10.3,0,23s10,23,22.5,23s22.5,-10.3,22.5,-23S35,0,22.5,0L22.5,0z" stroke="#000000" stroke-dasharray="none" fill="#FFFFFF"/>
<rect x="4.4" y="11.7" width="36.2" height="22.6" fill="none"/>
<circle fill="none" cx="22.6" cy="0" r="0.1"/>
<circle fill="none" cx="33.3" cy="2.8" r="0.1"/>
<circle fill="none" cx="42.1" cy="11.7" r="0.1"/>
<circle fill="none" cx="45" cy="23" r="0.1"/>
<circle fill="none" cx="42.1" cy="34.3" r="0.1"/>
<circle fill="none" cx="33.6" cy="43" r="0.1"/>
<circle fill="none" cx="22.5" cy="46" r="0.1"/>
<circle fill="none" cx="11.4" cy="43" r="0.1"/>
<circle fill="none" cx="2.9" cy="34.3" r="0.1"/>
<circle fill="none" cx="0" cy="22.8" r="0.1"/>
<circle fill="none" cx="2.9" cy="11.7" r="0.1"/>
<circle fill="none" cx="11.7" cy="2.8" r="0.1"/>
</g></g><rect stroke="none" stroke-width="0" fill="#FFFFFF" x="0" y="0" width="0" height="0" transform="translate(44.9,22.9)"/><path stroke="#000000" fill="none" d=""/><text font-family="OpenSansCondensedLight" font-size="14pt" fill="black" transform="translate(44.9,22.9)"/><rect stroke-width="0" fill="none" width="36.2" height="22.6" transform="translate(4.4,11.7)"/><text font-family="OpenSansCondensedLight" font-size="14pt" fill="black" transform="translate(4.4,11.7)" text-anchor="middle"><tspan x="18.1" y="17.6"> </tspan></text><path stroke="#000000" fill="none" transform="translate(4.4,11.7)" d="M 0 0"/></g><g><path stroke="black" d="M 590 193 683 149" fill="none"/><path fill="black" stroke="black" d="" transform="translate(590,193) scale(1,1) rotate(-25.3)"/><path fill="black" stroke="black" d="" transform="translate(683,149) scale(1,1) rotate(-205.3)"/><g><g label-idx="0" cursor="move" transform="translate(636.5, 171)"><rect fill="white" rx="3" ry="3" x="0" y="0" width="0" height="0"/><text text-anchor="middle" font-size="14pt" font-family="OpenSansCondensedLight" y="0.8em" display="none" xml:space="preserve" transform="translate(0,0)"/></g></g></g><g><path stroke="black" d="M 671 322 778 250" fill="none"/><path fill="black" stroke="black" d="" transform="translate(671,322) scale(1,1) rotate(-33.9)"/><path fill="black" stroke="black" d="" transform="translate(778,250) scale(1,1) rotate(-213.9)"/><g><g label-idx="0" cursor="move" transform="translate(724.5, 286)"><rect fill="white" rx="3" ry="3" x="0" y="0" width="0" height="0"/><text text-anchor="middle" font-size="14pt" font-family="OpenSansCondensedLight" y="0.8em" display="none" xml:space="preserve" transform="translate(0,0)"/></g></g></g></g><defs/></svg>