<svg xmlns="http://www.w3.org/2000/svg" xmlns:xlink="http://www.w3.org/1999/xlink" version="1.1" width="895" height="624.5" viewBox="0 8.9 895 624.5"><g><g transform="translate(325,149)"><g><g>
<path d="M203,0H0v94h203V0L203,0z" stroke="#000000" stroke-dasharray="none" fill="#FFFFFF"/>
<rect x="8.9" y="4.3" width="185.3" height="85.4" fill="none"/>
<circle fill="none" cx="101.5" cy="0" r="0.1"/>
<circle fill="none" cx="151.8" cy="0" r="0.1"/>
<circle fill="none" cx="203" cy="23.7" r="0.1"/>
<circle fill="none" cx="203" cy="47" r="0.1"/>
<circle fill="none" cx="203" cy="70.3" r="0.1"/>
<circle fill="none" cx="151.8" cy="94" r="0.1"/>
<circle fill="none" cx="101.5" cy="94" r="0.1"/>
<circle fill="none" cx="51.2" cy="94" r="0.1"/>
<circle fill="none" cx="0" cy="70.3" r="0.1"/>
<circle fill="none" cx="0" cy="47" r="0.1"/>
<circle fill="none" cx="0" cy="23.7" r="0.1"/>
<circle fill="none" cx="51.2" cy="0" r="0.1"/>
</g></g><rect stroke="none" stroke-width="1" fill="#FFFFFF" x="0" y="0" width="40" height="20" transform="translate(161.7,-62.1)"/><path stroke="#000000" fill="none" d="M151.8,0 C179.9,-7.6 147.9,-34.5 176 -42.1"/><text font-family="OpenSansCondensedLight" font-size="14pt" fill="black" transform="translate(161.7,-62.1)" text-anchor="middle"><tspan x="20" y="16.3">104</tspan></text><rect stroke-width="0" fill="none" width="185.3" height="85.4" transform="translate(8.9,4.3)"/><text font-family="OpenSansCondensedLight" font-size="14pt" fill="black" transform="translate(8.9,4.3)" text-anchor="middle"><tspan x="92.6" y="49">PACKAGE DOCKING DEVICE(S)</tspan></text><path stroke="#000000" fill="none" transform="translate(8.9,4.3)" d="M 0 0"/></g><g transform="translate(73,199)"><g><g>
<path d="M152,0H0v75h152V0L152,0z" stroke="#000000" stroke-dasharray="5,5" fill="#FFFFFF"/>
<rect x="6.6" y="3.4" width="138.7" height="68.2" fill="none"/>
<circle fill="none" cx="76" cy="0" r="0.1"/>
<circle fill="none" cx="113.7" cy="0" r="0.1"/>
<circle fill="none" cx="152" cy="18.9" r="0.1"/>
<circle fill="none" cx="152" cy="37.5" r="0.1"/>
<circle fill="none" cx="152" cy="56.1" r="0.1"/>
<circle fill="none" cx="113.7" cy="75" r="0.1"/>
<circle fill="none" cx="76" cy="75" r="0.1"/>
<circle fill="none" cx="38.3" cy="75" r="0.1"/>
<circle fill="none" cx="0" cy="56.1" r="0.1"/>
<circle fill="none" cx="0" cy="37.5" r="0.1"/>
<circle fill="none" cx="0" cy="18.9" r="0.1"/>
<circle fill="none" cx="38.3" cy="0" r="0.1"/>
</g></g><rect stroke="none" stroke-width="1" fill="#FFFFFF" x="0" y="0" width="40" height="20" transform="translate(-72.1,76)"/><path stroke="#000000" fill="none" d="M0,56.1 C-23.1,49.8 -11.5,82.2 -34.6 76"/><text font-family="OpenSansCondensedLight" font-size="14pt" fill="black" transform="translate(-72.1,76)" text-anchor="middle"><tspan x="20" y="16.3">402</tspan></text><rect stroke-width="0" fill="none" width="138.7" height="68.2" transform="translate(6.6,3.4)"/><text font-family="OpenSansCondensedLight" font-size="14pt" fill="black" transform="translate(6.6,3.4)" text-anchor="middle"><tspan x="69.4" y="29.9">VIDEO RECORDING</tspan><tspan x="69.4" y="50.9">DEVICE</tspan></text><path stroke="#000000" fill="none" transform="translate(6.6,3.4)" d="M 0 0"/></g><g transform="translate(612,130)"><g><g>
<path d="M204,0H0v77h204V0L204,0z" stroke="#000000" stroke-dasharray="none" fill="#FFFFFF"/>
<rect x="8.9" y="3.5" width="186.2" height="70" fill="none"/>
<circle fill="none" cx="102" cy="0" r="0.1"/>
<circle fill="none" cx="152.6" cy="0" r="0.1"/>
<circle fill="none" cx="204" cy="19.4" r="0.1"/>
<circle fill="none" cx="204" cy="38.5" r="0.1"/>
<circle fill="none" cx="204" cy="57.6" r="0.1"/>
<circle fill="none" cx="152.6" cy="77" r="0.1"/>
<circle fill="none" cx="102" cy="77" r="0.1"/>
<circle fill="none" cx="51.5" cy="77" r="0.1"/>
<circle fill="none" cx="0" cy="57.6" r="0.1"/>
<circle fill="none" cx="0" cy="38.5" r="0.1"/>
<circle fill="none" cx="0" cy="19.4" r="0.1"/>
<circle fill="none" cx="51.5" cy="0" r="0.1"/>
</g></g><rect stroke="none" stroke-width="1" fill="#FFFFFF" x="0" y="0" width="40" height="20" transform="translate(243.9,28.4)"/><path stroke="#000000" fill="none" d="M204,38.5 C221,55.4 226.9,21.5 243.9 38.4"/><text font-family="OpenSansCondensedLight" font-size="14pt" fill="black" transform="translate(243.9,28.4)" text-anchor="middle"><tspan x="20" y="16.3">404</tspan></text><rect stroke-width="0" fill="none" width="186.2" height="70" transform="translate(8.9,3.5)"/><text font-family="OpenSansCondensedLight" font-size="14pt" fill="black" transform="translate(8.9,3.5)" text-anchor="middle"><tspan x="93.1" y="30.8">COMMUNICATION</tspan><tspan x="93.1" y="51.8">COMPONENT(S)</tspan></text><path stroke="#000000" fill="none" transform="translate(8.9,3.5)" d="M 0 0"/></g><g transform="translate(72,84)"><g><g>
<path d="M152,0H0v75h152V0L152,0z" stroke="#000000" stroke-dasharray="5,5" fill="#FFFFFF"/>
<rect x="6.6" y="3.4" width="138.7" height="68.2" fill="none"/>
<circle fill="none" cx="76" cy="0" r="0.1"/>
<circle fill="none" cx="113.7" cy="0" r="0.1"/>
<circle fill="none" cx="152" cy="18.9" r="0.1"/>
<circle fill="none" cx="152" cy="37.5" r="0.1"/>
<circle fill="none" cx="152" cy="56.1" r="0.1"/>
<circle fill="none" cx="113.7" cy="75" r="0.1"/>
<circle fill="none" cx="76" cy="75" r="0.1"/>
<circle fill="none" cx="38.3" cy="75" r="0.1"/>
<circle fill="none" cx="0" cy="56.1" r="0.1"/>
<circle fill="none" cx="0" cy="37.5" r="0.1"/>
<circle fill="none" cx="0" cy="18.9" r="0.1"/>
<circle fill="none" cx="38.3" cy="0" r="0.1"/>
</g></g><rect stroke="none" stroke-width="1" fill="#FFFFFF" x="0" y="0" width="40" height="20" transform="translate(-72.1,76)"/><path stroke="#000000" fill="none" d="M0,56.1 C-23.1,49.8 -11.5,82.2 -34.6 76"/><text font-family="OpenSansCondensedLight" font-size="14pt" fill="black" transform="translate(-72.1,76)" text-anchor="middle"><tspan x="20" y="16.3">502</tspan></text><rect stroke-width="0" fill="none" width="138.7" height="68.2" transform="translate(6.6,3.4)"/><text font-family="OpenSansCondensedLight" font-size="14pt" fill="black" transform="translate(6.6,3.4)" text-anchor="middle"><tspan x="69.4" y="40.4">LOCKING SYSTEM</tspan></text><path stroke="#000000" fill="none" transform="translate(6.6,3.4)" d="M 0 0"/></g><g transform="translate(617,240)"><g><g>
<path d="M204,0H0v76h204V0L204,0z" stroke="#000000" stroke-dasharray="none" fill="#FFFFFF"/>
<rect x="8.9" y="3.5" width="186.2" height="69.1" fill="none"/>
<circle fill="none" cx="102" cy="0" r="0.1"/>
<circle fill="none" cx="152.6" cy="0" r="0.1"/>
<circle fill="none" cx="204" cy="19.2" r="0.1"/>
<circle fill="none" cx="204" cy="38" r="0.1"/>
<circle fill="none" cx="204" cy="56.8" r="0.1"/>
<circle fill="none" cx="152.6" cy="76" r="0.1"/>
<circle fill="none" cx="102" cy="76" r="0.1"/>
<circle fill="none" cx="51.5" cy="76" r="0.1"/>
<circle fill="none" cx="0" cy="56.8" r="0.1"/>
<circle fill="none" cx="0" cy="38" r="0.1"/>
<circle fill="none" cx="0" cy="19.2" r="0.1"/>
<circle fill="none" cx="51.5" cy="0" r="0.1"/>
</g></g><rect stroke="none" stroke-width="1" fill="#FFFFFF" x="0" y="0" width="40" height="20" transform="translate(243.9,27.9)"/><path stroke="#000000" fill="none" d="M204,38 C221,54.9 226.9,21 243.9 37.9"/><text font-family="OpenSansCondensedLight" font-size="14pt" fill="black" transform="translate(243.9,27.9)" text-anchor="middle"><tspan x="20" y="16.3">508</tspan></text><rect stroke-width="0" fill="none" width="186.2" height="69.1" transform="translate(8.9,3.5)"/><text font-family="OpenSansCondensedLight" font-size="14pt" fill="black" transform="translate(8.9,3.5)" text-anchor="middle"><tspan x="93.1" y="40.8">PROCESSOR</tspan></text><path stroke="#000000" fill="none" transform="translate(8.9,3.5)" d="M 0 0"/></g><g transform="translate(350,9)"><g><g>
<path d="M152,0H0v75h152V0L152,0z" stroke="#000000" stroke-dasharray="5,5" fill="#FFFFFF"/>
<rect x="6.6" y="3.4" width="138.7" height="68.2" fill="none"/>
<circle fill="none" cx="76" cy="0" r="0.1"/>
<circle fill="none" cx="113.7" cy="0" r="0.1"/>
<circle fill="none" cx="152" cy="18.9" r="0.1"/>
<circle fill="none" cx="152" cy="37.5" r="0.1"/>
<circle fill="none" cx="152" cy="56.1" r="0.1"/>
<circle fill="none" cx="113.7" cy="75" r="0.1"/>
<circle fill="none" cx="76" cy="75" r="0.1"/>
<circle fill="none" cx="38.3" cy="75" r="0.1"/>
<circle fill="none" cx="0" cy="56.1" r="0.1"/>
<circle fill="none" cx="0" cy="37.5" r="0.1"/>
<circle fill="none" cx="0" cy="18.9" r="0.1"/>
<circle fill="none" cx="38.3" cy="0" r="0.1"/>
</g></g><rect stroke="none" stroke-width="1" fill="#FFFFFF" x="0" y="0" width="40" height="20" transform="translate(-72.1,76)"/><path stroke="#000000" fill="none" d="M0,56.1 C-23.1,49.8 -11.5,82.2 -34.6 76"/><text font-family="OpenSansCondensedLight" font-size="14pt" fill="black" transform="translate(-72.1,76)" text-anchor="middle"><tspan x="20" y="16.3">504</tspan></text><rect stroke-width="0" fill="none" width="138.7" height="68.2" transform="translate(6.6,3.4)"/><text font-family="OpenSansCondensedLight" font-size="14pt" fill="black" transform="translate(6.6,3.4)" text-anchor="middle"><tspan x="69.4" y="40.4">DETECTION SENSOR</tspan></text><path stroke="#000000" fill="none" transform="translate(6.6,3.4)" d="M 0 0"/></g><g transform="translate(344,344)"><g><g>
<path d="M170,0H0v54h170V0L170,0z" stroke="#000000" stroke-dasharray="none" fill="#FFFFFF"/>
<rect x="7.4" y="2.5" width="155.1" height="49.1" fill="none"/>
<circle fill="none" cx="85" cy="0" r="0.1"/>
<circle fill="none" cx="127.1" cy="0" r="0.1"/>
<circle fill="none" cx="170" cy="13.6" r="0.1"/>
<circle fill="none" cx="170" cy="27" r="0.1"/>
<circle fill="none" cx="170" cy="40.4" r="0.1"/>
<circle fill="none" cx="127.1" cy="54" r="0.1"/>
<circle fill="none" cx="85" cy="54" r="0.1"/>
<circle fill="none" cx="42.9" cy="54" r="0.1"/>
<circle fill="none" cx="0" cy="40.4" r="0.1"/>
<circle fill="none" cx="0" cy="27" r="0.1"/>
<circle fill="none" cx="0" cy="13.6" r="0.1"/>
<circle fill="none" cx="42.9" cy="0" r="0.1"/>
</g></g><rect stroke="none" stroke-width="1" fill="#FFFFFF" x="0" y="0" width="40" height="20" transform="translate(201.9,-26.5)"/><path stroke="#000000" fill="none" d="M170,13.6 C193.2,19.8 181.4,-12.6 204.6 -6.5"/><text font-family="OpenSansCondensedLight" font-size="14pt" fill="black" transform="translate(201.9,-26.5)" text-anchor="middle"><tspan x="20" y="16.3">512</tspan></text><rect stroke-width="0" fill="none" width="155.1" height="49.1" transform="translate(7.4,2.5)"/><text font-family="OpenSansCondensedLight" font-size="14pt" fill="black" transform="translate(7.4,2.5)" text-anchor="middle"><tspan x="77.6" y="30.8">MEMORY</tspan></text><path stroke="#000000" fill="none" transform="translate(7.4,2.5)" d="M 0 0"/></g><g transform="translate(629,337)"><g><g>
<path d="M152,0H0v75h152V0L152,0z" stroke="#000000" stroke-dasharray="5,5" fill="#FFFFFF"/>
<rect x="6.6" y="3.4" width="138.7" height="68.2" fill="none"/>
<circle fill="none" cx="76" cy="0" r="0.1"/>
<circle fill="none" cx="113.7" cy="0" r="0.1"/>
<circle fill="none" cx="152" cy="18.9" r="0.1"/>
<circle fill="none" cx="152" cy="37.5" r="0.1"/>
<circle fill="none" cx="152" cy="56.1" r="0.1"/>
<circle fill="none" cx="113.7" cy="75" r="0.1"/>
<circle fill="none" cx="76" cy="75" r="0.1"/>
<circle fill="none" cx="38.3" cy="75" r="0.1"/>
<circle fill="none" cx="0" cy="56.1" r="0.1"/>
<circle fill="none" cx="0" cy="37.5" r="0.1"/>
<circle fill="none" cx="0" cy="18.9" r="0.1"/>
<circle fill="none" cx="38.3" cy="0" r="0.1"/>
</g></g><rect stroke="none" stroke-width="1" fill="#FFFFFF" x="0" y="0" width="40" height="20" transform="translate(191.9,27.4)"/><path stroke="#000000" fill="none" d="M152,37.5 C169,54.4 174.9,20.5 191.9 37.4"/><text font-family="OpenSansCondensedLight" font-size="14pt" fill="black" transform="translate(191.9,27.4)" text-anchor="middle"><tspan x="20" y="16.3">506</tspan></text><rect stroke-width="0" fill="none" width="138.7" height="68.2" transform="translate(6.6,3.4)"/><text font-family="OpenSansCondensedLight" font-size="14pt" fill="black" transform="translate(6.6,3.4)" text-anchor="middle"><tspan x="69.4" y="40.4">SECURITY KEY</tspan></text><path stroke="#000000" fill="none" transform="translate(6.6,3.4)" d="M 0 0"/></g><g transform="translate(493,511)"><g><g>
<path d="M139,0H0v94h139V0L139,0z" stroke="#000000" stroke-dasharray="none" fill="#FFFFFF"/>
<rect x="6.1" y="4.3" width="126.9" height="85.4" fill="none"/>
<circle fill="none" cx="69.5" cy="0" r="0.1"/>
<circle fill="none" cx="103.9" cy="0" r="0.1"/>
<circle fill="none" cx="139" cy="23.7" r="0.1"/>
<circle fill="none" cx="139" cy="47" r="0.1"/>
<circle fill="none" cx="139" cy="70.3" r="0.1"/>
<circle fill="none" cx="103.9" cy="94" r="0.1"/>
<circle fill="none" cx="69.5" cy="94" r="0.1"/>
<circle fill="none" cx="35.1" cy="94" r="0.1"/>
<circle fill="none" cx="0" cy="70.3" r="0.1"/>
<circle fill="none" cx="0" cy="47" r="0.1"/>
<circle fill="none" cx="0" cy="23.7" r="0.1"/>
<circle fill="none" cx="35.1" cy="0" r="0.1"/>
</g></g><rect stroke="none" stroke-width="1" fill="#FFFFFF" x="0" y="0" width="40" height="20" transform="translate(178.9,36.9)"/><path stroke="#000000" fill="none" d="M139,47 C156,63.9 161.9,30 178.9 46.9"/><text font-family="OpenSansCondensedLight" font-size="14pt" fill="black" transform="translate(178.9,36.9)" text-anchor="middle"><tspan x="20" y="16.3">510</tspan></text><rect stroke-width="0" fill="none" width="126.9" height="85.4" transform="translate(6.1,4.3)"/><text font-family="OpenSansCondensedLight" font-size="14pt" fill="black" transform="translate(6.1,4.3)" text-anchor="middle"><tspan x="63.4" y="49">DEVICE IDENTIFIER</tspan></text><path stroke="#000000" fill="none" transform="translate(6.1,4.3)" d="M 0 0"/></g><g transform="translate(235,513)"><g><g>
<path d="M206,0H0v94h206V0L206,0z" stroke="#000000" stroke-dasharray="none" fill="#FFFFFF"/>
<rect x="9" y="4.3" width="188" height="85.4" fill="none"/>
<circle fill="none" cx="103" cy="0" r="0.1"/>
<circle fill="none" cx="154" cy="0" r="0.1"/>
<circle fill="none" cx="206" cy="23.7" r="0.1"/>
<circle fill="none" cx="206" cy="47" r="0.1"/>
<circle fill="none" cx="206" cy="70.3" r="0.1"/>
<circle fill="none" cx="154" cy="94" r="0.1"/>
<circle fill="none" cx="103" cy="94" r="0.1"/>
<circle fill="none" cx="52" cy="94" r="0.1"/>
<circle fill="none" cx="0" cy="70.3" r="0.1"/>
<circle fill="none" cx="0" cy="47" r="0.1"/>
<circle fill="none" cx="0" cy="23.7" r="0.1"/>
<circle fill="none" cx="52" cy="0" r="0.1"/>
</g></g><rect stroke="none" stroke-width="1" fill="#FFFFFF" x="0" y="0" width="40" height="20" transform="translate(-72.1,90.2)"/><path stroke="#000000" fill="none" d="M0,70.3 C-23.1,64 -11.5,96.5 -34.6 90.2"/><text font-family="OpenSansCondensedLight" font-size="14pt" fill="black" transform="translate(-72.1,90.2)" text-anchor="middle"><tspan x="20" y="16.3">412</tspan></text><rect stroke-width="0" fill="none" width="188" height="85.4" transform="translate(9,4.3)"/><text font-family="OpenSansCondensedLight" font-size="14pt" fill="black" transform="translate(9,4.3)" text-anchor="middle"><tspan x="94" y="49">TRANSACTION RECORD</tspan></text><path stroke="#000000" fill="none" transform="translate(9,4.3)" d="M 0 0"/></g><g transform="translate(148,342)"><g><g>
<path d="M94,0H0v62h94V0L94,0z" stroke="#000000" stroke-dasharray="none" fill="#FFFFFF"/>
<rect x="4.1" y="2.8" width="85.8" height="56.3" fill="none"/>
<circle fill="none" cx="47" cy="0" r="0.1"/>
<circle fill="none" cx="70.3" cy="0" r="0.1"/>
<circle fill="none" cx="94" cy="15.6" r="0.1"/>
<circle fill="none" cx="94" cy="31" r="0.1"/>
<circle fill="none" cx="94" cy="46.4" r="0.1"/>
<circle fill="none" cx="70.3" cy="62" r="0.1"/>
<circle fill="none" cx="47" cy="62" r="0.1"/>
<circle fill="none" cx="23.7" cy="62" r="0.1"/>
<circle fill="none" cx="0" cy="46.4" r="0.1"/>
<circle fill="none" cx="0" cy="31" r="0.1"/>
<circle fill="none" cx="0" cy="15.6" r="0.1"/>
<circle fill="none" cx="23.7" cy="0" r="0.1"/>
</g></g><rect stroke="none" stroke-width="1" fill="#FFFFFF" x="0" y="0" width="40" height="20" transform="translate(-80.1,20.9)"/><path stroke="#000000" fill="none" d="M0,31 C-17,14 -23.1,48 -40.1 30.9"/><text font-family="OpenSansCondensedLight" font-size="14pt" fill="black" transform="translate(-80.1,20.9)" text-anchor="middle"><tspan x="20" y="16.3">414</tspan></text><rect stroke-width="0" fill="none" width="85.8" height="56.3" transform="translate(4.1,2.8)"/><text font-family="OpenSansCondensedLight" font-size="14pt" fill="black" transform="translate(4.1,2.8)" text-anchor="middle"><tspan x="42.9" y="34.5">APPLICATION</tspan></text><path stroke="#000000" fill="none" transform="translate(4.1,2.8)" d="M 0 0"/></g><g><path stroke="black" stroke-dasharray="none" d="M 242 371 336 371" fill="none"/><path fill="black" stroke="black" d="" transform="translate(242,371) scale(1,1) rotate(0)"/><path fill="black" stroke="black" d="M 8 0 L 0 4 L 8 8 z" transform="translate(344,375) scale(1,1) rotate(-180)"/><g><g label-idx="0" cursor="move" transform="translate(289, 371)"><rect fill="white" rx="3" ry="3" x="0" y="0" width="0" height="0"/><text text-anchor="middle" font-size="14pt" font-family="OpenSansCondensedLight" y="0.8em" display="none" xml:space="preserve" transform="translate(0,0)"/></g></g></g><g><path stroke="black" stroke-dasharray="none" d="M 387 513 387 406" fill="none"/><path fill="black" stroke="black" d="" transform="translate(387,513) scale(1,1) rotate(-90)"/><path fill="black" stroke="black" d="M 8 0 L 0 4 L 8 8 z" transform="translate(391,398) scale(1,1) rotate(-270)"/><g><g label-idx="0" cursor="move" transform="translate(387, 459.5)"><rect fill="white" rx="3" ry="3" x="0" y="0" width="0" height="0"/><text text-anchor="middle" font-size="14pt" font-family="OpenSansCondensedLight" y="0.8em" display="none" xml:space="preserve" transform="translate(0,0)"/></g></g></g><g><path stroke="black" stroke-dasharray="none" d="M 617 282 480 282 480 251" fill="none"/><path fill="black" stroke="black" d="" transform="translate(617,282) scale(1,1) rotate(-180)"/><path fill="black" stroke="black" d="M 8 0 L 0 4 L 8 8 z" transform="translate(484,243) scale(1,1) rotate(-270)"/><g><g label-idx="0" cursor="move" transform="translate(533, 282)"><rect fill="white" rx="3" ry="3" x="0" y="0" width="0" height="0"/><text text-anchor="middle" font-size="14pt" font-family="OpenSansCondensedLight" y="0.8em" display="none" xml:space="preserve" transform="translate(0,0)"/></g></g></g><g><path stroke="black" stroke-dasharray="none" d="M 426 344 426 251" fill="none"/><path fill="black" stroke="black" d="" transform="translate(426,344) scale(1,1) rotate(-90)"/><path fill="black" stroke="black" d="M 8 0 L 0 4 L 8 8 z" transform="translate(430,243) scale(1,1) rotate(-270)"/><g><g label-idx="0" cursor="move" transform="translate(426, 297.5)"><rect fill="white" rx="3" ry="3" x="0" y="0" width="0" height="0"/><text text-anchor="middle" font-size="14pt" font-family="OpenSansCondensedLight" y="0.8em" display="none" xml:space="preserve" transform="translate(0,0)"/></g></g></g><g><path stroke="black" stroke-dasharray="none" d="M 612 166 535 166" fill="none"/><path fill="black" stroke="black" d="" transform="translate(612,166) scale(1,1) rotate(-180)"/><path fill="black" stroke="black" d="M 8 0 L 0 4 L 8 8 z" transform="translate(527,162) scale(1,1) rotate(0)"/><g><g label-idx="0" cursor="move" transform="translate(573.5, 166)"><rect fill="white" rx="3" ry="3" x="0" y="0" width="0" height="0"/><text text-anchor="middle" font-size="14pt" font-family="OpenSansCondensedLight" y="0.8em" display="none" xml:space="preserve" transform="translate(0,0)"/></g></g></g><g><path stroke="black" stroke-dasharray="5,5" d="M 225 219 317 219" fill="none"/><path fill="black" stroke="black" d="" transform="translate(225,219) scale(1,1) rotate(0)"/><path fill="black" stroke="black" d="M 8 0 L 0 4 L 8 8 z" transform="translate(325,223) scale(1,1) rotate(-180)"/><g><g label-idx="0" cursor="move" transform="translate(271, 219)"><rect fill="white" rx="3" ry="3" x="0" y="0" width="0" height="0"/><text text-anchor="middle" font-size="14pt" font-family="OpenSansCondensedLight" y="0.8em" display="none" xml:space="preserve" transform="translate(0,0)"/></g></g></g><g><path stroke="black" stroke-dasharray="none" d="M 566 511 566 482 472 482 472 406" fill="none"/><path fill="black" stroke="black" d="" transform="translate(566,511) scale(1,1) rotate(-90)"/><path fill="black" stroke="black" d="M 8 0 L 0 4 L 8 8 z" transform="translate(476,398) scale(1,1) rotate(-270)"/><g><g label-idx="0" cursor="move" transform="translate(495.5, 482)"><rect fill="white" rx="3" ry="3" x="0" y="0" width="0" height="0"/><text text-anchor="middle" font-size="14pt" font-family="OpenSansCondensedLight" y="0.8em" display="none" xml:space="preserve" transform="translate(0,0)"/></g></g></g><g><path stroke="black" stroke-dasharray="5,5" d="M 629 371 522 371" fill="none"/><path fill="black" stroke="black" d="" transform="translate(629,371) scale(1,1) rotate(-180)"/><path fill="black" stroke="black" d="M 8 0 L 0 4 L 8 8 z" transform="translate(514,367) scale(1,1) rotate(0)"/><g><g label-idx="0" cursor="move" transform="translate(575.5, 371)"><rect fill="white" rx="3" ry="3" x="0" y="0" width="0" height="0"/><text text-anchor="middle" font-size="14pt" font-family="OpenSansCondensedLight" y="0.8em" display="none" xml:space="preserve" transform="translate(0,0)"/></g></g></g><g><path stroke="black" stroke-dasharray="5,5" d="M 224 120 381 120 381 141" fill="none"/><path fill="black" stroke="black" d="" transform="translate(224,120) scale(1,1) rotate(0)"/><path fill="black" stroke="black" d="M 8 0 L 0 4 L 8 8 z" transform="translate(377,149) scale(1,1) rotate(-90)"/><g><g label-idx="0" cursor="move" transform="translate(313, 120)"><rect fill="white" rx="3" ry="3" x="0" y="0" width="0" height="0"/><text text-anchor="middle" font-size="14pt" font-family="OpenSansCondensedLight" y="0.8em" display="none" xml:space="preserve" transform="translate(0,0)"/></g></g></g><g><path stroke="black" stroke-dasharray="5,5" d="M 426 84 426 141" fill="none"/><path fill="black" stroke="black" d="" transform="translate(426,84) scale(1,1) rotate(-270)"/><path fill="black" stroke="black" d="M 8 0 L 0 4 L 8 8 z" transform="translate(422,149) scale(1,1) rotate(-90)"/><g><g label-idx="0" cursor="move" transform="translate(426, 112.5)"><rect fill="white" rx="3" ry="3" x="0" y="0" width="0" height="0"/><text text-anchor="middle" font-size="14pt" font-family="OpenSansCondensedLight" y="0.8em" display="none" xml:space="preserve" transform="translate(0,0)"/></g></g></g></g><defs/></svg>